<?xml version="1.0" encoding="UTF-8"?>
<svg width="120px" height="82px" viewBox="0 0 120 82" version="1.1" xmlns="http://www.w3.org/2000/svg" xmlns:xlink="http://www.w3.org/1999/xlink">
    <title>编组</title>
    <g id="页面-1" stroke="none" stroke-width="1" fill="none" fill-rule="evenodd">
        <g id="数据配置-缺省页" transform="translate(-769.000000, -420.000000)" fill-rule="nonzero">
            <g id="编组" transform="translate(769.000000, 420.000000)">
                <path d="M57.5933083,2.94494318 C57.5933083,4.57121134 56.2728742,5.88777624 54.6490687,5.88777624 L42.8687096,5.88777624 C42.0876669,5.88830738 41.3384098,5.57851434 40.7858011,5.02656173 C40.2337062,4.47441323 39.9232544,3.72576093 39.9225937,2.94494318 C39.9225937,1.3191441 41.2417379,0 42.8688269,0 L54.649186,0 C56.2728742,-0.000117267677 57.5933083,1.3191441 57.5933083,2.94494318 L57.5933083,2.94494318 Z M73.626966,2.94494318 C73.626966,4.57121134 72.6987923,5.88777555 71.5534389,5.88777555 L63.266484,5.88777555 C62.1198406,5.88777555 61.1929569,4.57003866 61.1929569,2.94494318 C61.1929569,1.3191441 62.1197234,4.4408921e-15 63.266484,4.4408921e-15 L71.5534389,4.4408921e-15 C72.6987923,-0.000117267677 73.626966,1.3191441 73.626966,2.94494318 Z M91.623802,14.8880698 C91.623802,15.7996923 91.2618506,16.6740136 90.6171262,17.3185181 C89.9724017,17.9630226 89.0979569,18.3248624 88.1863345,18.3243651 L54.1559581,18.3243651 C52.2588016,18.3243651 50.7206015,16.7861644 50.7206015,14.8881871 C50.7206015,12.9911478 52.2589189,11.45283 54.1559581,11.45283 L88.1864518,11.45283 C89.0979553,11.4523857 89.9722907,11.8141084 90.6170589,12.4584008 C91.2615187,13.102769 91.623802,13.9767308 91.623802,14.8880698 L91.623802,14.8880698 Z M100.786512,27.158256 C100.786512,28.9660545 99.3213696,30.4319005 97.5129847,30.4319005 L46.1397742,30.4319005 C44.3319757,30.4319005 42.8668333,28.9667581 42.8668333,27.1589596 C42.8668333,25.3518647 44.332093,23.886136 46.1397742,23.886136 L97.511812,23.886136 C99.3194933,23.886136 100.785339,25.350692 100.786512,27.158256 Z M103.731455,38.7763166 C103.731455,39.6877974 103.369639,40.5620015 102.725298,41.2066892 C102.081031,41.8514571 101.206881,42.2136718 100.295395,42.2135495 L90.8039836,42.2135495 C88.9055372,42.2135495 87.3672198,40.6746457 87.3672198,38.7769029 C87.3672198,36.8789256 88.9054199,35.3400218 90.8039836,35.3400218 L100.295395,35.3400218 C101.206565,35.3400218 102.080561,35.7021444 102.725298,36.3461785 C103.369418,36.990918 103.731455,37.8649555 103.731455,38.7763166 Z M84.7516815,38.7763166 C84.7516815,40.6751148 82.4660172,42.2135495 79.6401007,42.2135495 L13.943347,42.2135495 C11.122473,42.2135495 8.83540152,40.6766393 8.83540152,38.7763166 C8.83540152,36.8782219 11.1223558,35.3400218 13.943347,35.3400218 L79.6401007,35.3400218 C82.4660172,35.3401391 84.7516815,36.8783392 84.7516815,38.7763166 L84.7516815,38.7763166 Z" id="形状" fill-opacity="0.2" fill="#6E7A92"></path>
                <path d="M64.1367274,52.8459753 C64.1367274,53.8877342 63.7231371,54.886879 62.9869178,55.6239293 C62.2502945,56.3605863 61.2511994,56.7744425 60.2094329,56.7744425 L3.92728014,56.7744425 C2.52445404,56.7742911 1.22821535,56.0259333 0.526634763,54.811147 C-0.175544921,53.5962922 -0.175544921,52.0989418 0.526634763,50.884087 C1.22787718,49.6688705 2.52425057,48.9201667 3.92728014,48.9200879 L60.2094329,48.9200879 C61.2508879,48.9199231 62.249743,49.3335289 62.9862142,50.0698975 C63.7229416,50.8058985 64.1367274,51.8045989 64.1367274,52.8459753 L64.1367274,52.8459753 Z M114.530166,66.7190933 C114.529463,68.8681408 112.787921,70.6100348 110.638756,70.6107385 L63.7746048,70.6107385 C61.6646075,70.5557399 59.9834581,68.8293252 59.9834581,66.7190933 C59.9834581,64.6087442 61.6646075,62.8826812 63.7746048,62.8274482 L110.637583,62.8274482 C112.786631,62.8286208 114.528877,64.5701631 114.530166,66.7190933 L114.530166,66.7190933 Z" id="形状" fill-opacity="0.2" fill="#6E7A92"></path>
                <path d="M75.2627329,73.4271563 C75.2628887,74.1743665 74.9660252,74.8909953 74.4375249,75.4192097 C73.9090245,75.9474241 73.1922351,76.2438997 72.4450251,76.2433403 L68.5877394,76.2433403 C67.0324182,76.2433403 65.7712043,74.9829465 65.7712043,73.427039 C65.7712043,71.8716005 67.0324182,70.6105039 68.5877394,70.6105039 L72.4450251,70.6105039 C74.000229,70.6110903 75.2614429,71.8717178 75.2627329,73.4271563 L75.2627329,73.4271563 Z" id="路径" fill="#E3EDF1"></path>
                <path d="M106.678861,79.0497896 C106.678861,79.7946412 106.382848,80.5089584 105.855876,81.0353659 C105.328691,81.5610738 104.614457,81.8561301 103.869948,81.8557709 L51.5611762,81.8557709 C50.0116011,81.8557709 48.7554298,80.599482 48.7554298,79.0497896 C48.7554298,77.5000972 50.0116011,76.2433395 51.5611762,76.2433395 L103.870065,76.2433395 C105.4214,76.2433395 106.678861,77.4993936 106.678861,79.0497896 Z M117.47382,79.0497896 C117.47382,80.5987783 116.218235,81.855067 114.66866,81.8557706 L112.428261,81.8557706 C110.877982,81.8557706 109.621811,80.599482 109.621811,79.0497896 C109.621811,77.5000972 110.877982,76.2433395 112.428261,76.2433395 L114.668542,76.2433395 C116.216358,76.2433395 117.47382,77.4993936 117.47382,79.0497896 Z" id="形状" fill-opacity="0.2" fill="#6E7A92"></path>
                <path d="M83.053411,4.51832361 L33.9048856,4.51832361 C33.9048856,4.51832361 30.1257002,4.04620394 29.8870604,9.00862025 C29.6501797,13.9696293 29.8870604,66.0048159 29.8870604,72.7722163 C29.8076702,78.2975174 36.657158,79.5013874 39.1027754,76.3550956 C42.4116002,72.3391467 40.2845991,67.6115003 39.5768886,67.3742678 C38.866012,67.1360972 85.6553462,67.3742678 85.6553462,67.3742678 L85.6553462,10.8979198 C85.655229,10.8979198 86.307589,4.50507237 83.053411,4.51832361 Z" id="路径" fill="#FFFFFF"></path>
                <path d="M35.252174,78.6732431 C33.5578906,78.6732431 31.9522615,78.0316716 30.8484209,76.9089509 C29.7969989,75.8422841 29.2529941,74.4078658 29.2767995,72.7627176 C29.2767995,71.24973 29.2648381,67.4375924 29.2491243,62.3840591 C29.1950639,45.069721 29.0929237,12.8405761 29.2767995,8.97953787 C29.456219,5.23049022 31.6512354,3.89563225 33.6449032,3.89563225 C33.8563368,3.89563225 33.9815787,3.91275333 33.9815787,3.91275333 L83.053411,3.90888349 C83.8513003,3.90888349 84.5155044,4.20287356 85.0412154,4.78416944 C86.6865982,6.60510193 86.2799139,10.7840529 86.2627928,10.9610098 L86.2665454,67.9891023 L85.6526491,67.9867569 C85.6513591,67.9867569 64.8588618,67.8809815 51.2072624,67.8809815 C45.0183434,67.8809815 42.1010754,67.9036141 40.7574223,67.9274195 C40.9921922,68.410445 41.141474,68.8978095 41.1874429,69.0602252 C41.5533181,70.3382084 42.1275779,73.6435151 39.5743087,76.7428998 C38.6247924,77.9655326 37.0454313,78.6732431 35.252174,78.6732431 Z M33.6449032,5.11650604 C32.755076,5.11650604 30.667125,5.49997134 30.4970869,9.0374681 C30.3145011,12.8668441 30.4153513,45.0760535 30.4694117,62.3794856 C30.4852429,67.4345434 30.4970869,71.24973 30.4970869,72.772099 C30.4783241,74.0925331 30.8994323,75.2227589 31.716788,76.050786 C32.5951229,76.9410822 33.8828393,77.4515484 35.252174,77.4515484 C36.6652495,77.4515484 37.8930421,76.9158697 38.6190462,75.9794873 C40.2410928,74.0118529 40.3978796,71.9667046 40.2461353,70.5959627 C40.0811396,69.1000962 39.5068798,68.073535 39.3074075,67.918038 C39.0921041,67.8570588 38.9164371,67.5691667 38.965455,67.2721277 C39.0039188,67.0320807 39.0271378,66.8866688 39.7682695,66.7984835 L39.7682695,66.7966072 L39.7707321,66.7984835 C40.9261705,66.6605767 43.8193987,66.6605767 51.2046825,66.6605767 C63.4722887,66.6605767 81.5062985,66.7455958 85.0412154,66.7627169 L85.0412154,10.8979198 C85.1520334,9.7797725 85.1955397,6.77818903 84.1326254,5.60129062 C83.865074,5.28965354 83.4708681,5.11650604 83.0603298,5.12846734 L33.9048856,5.12846734 C33.8192802,5.12342483 33.7505613,5.11650604 33.6449032,5.11650604 Z" id="形状" fill="#6D798F"></path>
                <path d="M36.2490665,15.2729423 L79.4833138,15.2729423 L79.4833138,27.1508681 L36.2490665,27.1508681 L36.2490665,15.2729423 Z M36.2490665,31.2240436 L77.171147,31.2240436 L77.171147,33.7835279 L36.2490665,33.7835279 L36.2490665,31.2240436 Z M36.2490665,37.5495794 L57.865252,37.5495794 L57.865252,40.1083601 L36.2490665,40.1083601 L36.2490665,37.5495794 L36.2490665,37.5495794 Z M36.2490665,44.9386158 L71.8266726,44.9386158 L71.8266726,47.4981001 L36.2490665,47.4981001 L36.2490665,44.9386158 Z M36.2490665,52.2848494 L62.4340007,52.2848494 L62.4340007,54.8438647 L36.2490665,54.8438647 L36.2490665,52.2848494 Z M99.9799448,62.0974569 C101.041569,63.1579085 101.341188,64.6061643 100.650599,65.3314649 C99.9630583,66.0561791 98.5393114,65.7829454 97.480267,64.7201485 L87.292403,54.5270074 C86.2333586,53.4665558 85.9323325,52.0177136 86.6255017,51.2932339 C87.3124558,50.5678161 88.7360854,50.8415188 89.7933708,51.9045503 L99.9799448,62.0974569 L99.9799448,62.0974569 Z" id="形状" fill="#97A5BF"></path>
                <path d="M99.6141869,66.0429279 C98.8334187,66.0429279 97.9543802,65.6297938 97.2636736,64.9366246 L87.0769823,54.7434835 C85.8807347,53.547236 85.5866274,51.9386752 86.4051558,51.0827385 C87.1840477,50.2594021 88.8663698,50.5456525 90.0098469,51.6906541 L100.195248,61.8833261 C101.391496,63.0773456 101.690059,64.6854372 100.870827,65.5421949 C100.561123,65.8697235 100.126647,66.0429279 99.6141869,66.0429279 Z M87.6594508,51.1936737 C87.4232737,51.1936737 87.0890608,51.2465614 86.8478412,51.5029085 C86.2774513,52.0972211 86.5821127,53.3837648 87.5089964,54.3118212 L97.6955705,64.5047278 C98.2748728,65.0841473 98.9920819,65.4303215 99.6141869,65.4303215 C99.8515367,65.4303215 100.185867,65.3776683 100.428963,65.1210867 C100.99818,64.5256014 100.691408,63.2397613 99.7646414,62.313933 L89.5786536,52.1198538 C88.9999377,51.5399651 88.2828458,51.1936737 87.6594508,51.1936737 Z" id="形状" fill="#6D7890"></path>
                <path d="M86.4234495,51.5738555 C85.6433849,51.8069836 86.7142734,51.1201468 86.3283454,52.0770511 C86.1872724,52.9002702 86.5241824,53.587107 87.1462875,54.2181243 L96.8196982,64.0594624 C97.8158871,65.0766422 99.8068577,66.1077769 100.295512,65.4964605 C100.345937,65.4316115 100.402578,65.3748539 100.451009,65.3125848 L86.4234495,51.5738555 L86.4234495,51.5738555 Z" id="路径" fill="#6E7A92"></path>
                <path d="M88.1178502,33.6154834 C82.5321562,28.0284994 73.4392205,28.0284994 67.8497739,33.6181805 C62.2571611,39.2049299 62.2558711,48.3023218 67.8460213,53.8917684 C73.4367578,59.4775797 82.5309835,59.4775797 88.1178502,53.8917684 C93.7047169,48.3023218 93.7047169,39.20235 88.1178502,33.6154834" id="路径" fill="#FFFFFF"></path>
                <path d="M77.9828739,58.6918473 C74.0180231,58.7041342 70.2127455,57.1310362 67.4140072,54.3226099 C64.6031968,51.5250758 63.0291151,47.7188421 63.0428811,43.7531568 C63.0428811,39.7559708 64.5975894,36.0019979 67.4165871,33.1853455 C70.2140439,30.3752086 74.0195941,28.8012175 77.9847502,28.8142291 C81.9479082,28.8019676 85.7514858,30.3747335 88.5485744,33.1824138 C94.3753707,39.0097965 94.3753707,48.4938199 88.5485744,54.3226099 C85.7513721,57.1313951 81.9468933,58.7046343 77.9828739,58.6918473 L77.9828739,58.6918473 Z M77.9859228,30.0358055 C74.3162654,30.0358055 70.8695338,31.4623315 68.2816707,34.0499601 C65.6999415,36.6181883 64.2533204,40.1127641 64.2643684,43.7543295 C64.2643684,47.4253941 65.6892342,50.8721257 68.2772146,53.4598715 C70.8657813,56.0471483 74.3119265,57.4700743 77.9828739,57.4700743 C81.6538213,57.4700743 85.0992629,56.047031 87.6858361,53.4598715 C93.0380501,48.1066021 93.0380501,39.3997116 87.6858361,34.0489047 C85.1188973,31.4684829 81.6256471,30.0232665 77.9859228,30.0358055 L77.9859228,30.0358055 Z" id="形状" fill="#6D7890"></path>
                <polygon id="路径" fill="#6D7890" points="85.8529423 40.4953435 84.0980315 40.4953435 84.0980315 39.8839098 85.8529423 39.8839098"></polygon>
                <polygon id="路径" fill="#6D7890" points="82.2652549 40.4953435 80.4329475 40.4953435 80.4329475 39.8839098 82.2652549 39.8839098 82.2652549 40.4953435"></polygon>
                <polygon id="路径" fill="#6D7890" points="78.6012264 40.4953435 76.7683326 40.4953435 76.7683326 39.8839098 78.6012264 39.8839098"></polygon>
                <polygon id="路径" fill="#6D7890" points="74.9353215 40.4953435 73.1037176 40.4953435 73.1037176 39.8839098 74.9353215 39.8839098 74.9353215 40.4953435"></polygon>
                <polygon id="路径" fill="#6D7890" points="71.2725828 40.4953435 69.4395718 40.4953435 69.4395718 39.8839098 71.2725828 39.8839098"></polygon>
                <polygon id="路径" fill="#6D7890" points="81.3264099 35.4963396 79.4941024 35.4963396 79.4941024 34.8847887 81.3264099 34.8847887"></polygon>
                <polygon id="路径" fill="#6D7890" points="77.6623813 35.4963396 75.8307775 35.4963396 75.8307775 34.8847887 77.6623813 34.8847887"></polygon>
                <polygon id="路径" fill="#6D7890" points="73.9977664 35.4963396 72.1648726 35.4963396 72.1648726 34.8847887 73.9977664 34.8847887"></polygon>
                <polygon id="路径" fill="#6D7890" points="87.5474602 47.0292639 85.8347658 47.0292639 85.8347658 46.417713 87.5474602 46.417713"></polygon>
                <polygon id="路径" fill="#6D7890" points="84.0030446 47.0292639 82.1720271 47.0292639 82.1720271 46.417713 84.0030446 46.417713 84.0030446 47.0292639"></polygon>
                <polygon id="路径" fill="#6D7890" points="80.3390161 47.0292639 78.5061223 47.0292639 78.5061223 46.417713 80.3390161 46.417713"></polygon>
                <polygon id="路径" fill="#6D7890" points="76.6744011 47.0292639 74.8415073 47.0292639 74.8415073 46.417713 76.6744011 46.417713"></polygon>
                <polygon id="路径" fill="#6D7890" points="73.0084963 47.0292639 71.1774788 47.0292639 71.1774788 46.417713 73.0084963 46.417713"></polygon>
                <polygon id="路径" fill="#6D7890" points="69.3458749 47.0292639 67.5128638 47.0292639 67.5128638 46.417713 69.3458749 46.417713"></polygon>
                <polygon id="路径" fill="#6D7890" points="82.0700043 53.1600181 80.2371105 53.1600181 80.2371105 52.5487017 82.0700043 52.5487017"></polygon>
                <polygon id="路径" fill="#6D7890" points="78.4040994 53.1600181 76.5730819 53.1600181 76.5730819 52.5487017 78.4040994 52.5487017"></polygon>
                <polygon id="路径" fill="#6D7890" points="74.7413607 53.1600181 72.9083497 53.1600181 72.9083497 52.5487017 74.7413607 52.5487017"></polygon>
                <path d="M38.8942735,66.9540977 C38.8942735,66.9540977 43.3899644,75.4161333 35.0168177,78.064272 C35.0168177,78.064272 34.5679171,78.0159577 35.0168177,78.064272 C44.3975283,77.9801911 88.9918462,78.2974002 88.9918462,78.2974002 C88.9918462,78.2974002 92.5361445,76.0890153 93.5121633,73.6884286 C94.4837261,71.2906564 92.803163,67.9036141 91.3844586,66.9183311 C88.2865984,66.616015 38.8942735,66.9540977 38.8942735,66.9540977 Z" id="路径" fill="#97A5BF"></path>
                <path d="M89.0780379,78.6022961 L88.9892663,78.6022961 C88.6422712,78.599599 54.1520883,78.3554477 39.6913419,78.3554477 C37.7583015,78.3554477 36.1721389,78.359083 35.0659529,78.3686989 L35.0489491,78.3749141 L34.5522032,78.3208537 L34.5137394,78.0255737 L34.5294533,77.7358053 L34.8191044,77.7358053 L34.8518221,77.7401442 L34.8518221,77.7382679 L34.9878526,77.7531609 C37.206088,77.0387662 38.6745139,75.8340753 39.3544319,74.1741514 C40.6565721,70.9946728 38.6454315,67.13469 38.625965,67.0962262 L38.3892016,66.6516644 L38.8923972,66.64756 C39.1291606,66.6459183 62.6759239,66.4870206 78.0968581,66.4870206 C86.0695357,66.4870206 90.5515063,66.5291197 91.4154173,66.6134351 L91.4941039,66.6216439 L91.5601256,66.6660883 C93.1343269,67.7592576 94.804805,71.3169244 93.7960684,73.8022956 C92.793547,76.266324 89.3033091,78.4625131 89.1541446,78.5562099 L89.0780379,78.6022961 L89.0780379,78.6022961 Z M39.6913419,77.7451867 C53.788793,77.7451867 86.9176155,77.9776112 88.9036609,77.9920351 C89.4093191,77.6633338 92.3774813,75.6680243 93.229431,73.5736236 C94.1417735,71.3183316 92.531102,68.1552706 91.2749306,67.2152528 C90.2556399,67.1371526 85.8240944,67.0996269 78.0968581,67.0996269 C63.9024266,67.0996269 42.8208644,67.2354229 39.3784717,67.256062 C39.8948013,68.4116177 41.0728724,71.5851156 39.9211865,74.4041133 C39.3349654,75.8397042 38.2324147,76.9604314 36.6331181,77.7501119 C37.5033616,77.7463594 38.5347308,77.7451867 39.6913419,77.7451867 Z" id="形状" fill="#444E5A"></path>
                <path d="M119.770155,22.0479651 C119.770155,24.5017913 117.747053,26.4917065 115.258047,26.4917065 L95.5050103,26.4917065 C93.0141275,26.4917065 90.9927846,24.5017913 90.9927846,22.0479651 L90.9927846,20.5425999 C90.9927846,18.0894774 93.0140103,16.0978032 95.5050103,16.0978032 L115.258047,16.0978032 C117.747053,16.0978032 119.770155,18.0881874 119.770155,20.5425999 L119.770155,22.0479651 L119.770155,22.0479651 Z" id="路径" fill="#FFFFFF"></path>
                <path d="M115.258047,26.7214339 L95.5050103,26.7214339 C92.8913483,26.7214339 90.7629399,24.6259777 90.7629399,22.0479651 L90.7629399,20.5425999 C90.7629399,17.9652909 92.8900583,15.8698348 95.5050103,15.8698348 L115.258047,15.8698348 C117.871005,15.8698348 120,17.9654082 120,20.5425999 L120,22.0479651 C119.99871,24.6246878 117.871123,26.7214339 115.258047,26.7214339 L115.258047,26.7214339 Z M95.5050103,16.3276478 C93.1437083,16.3276478 91.2221601,18.2185891 91.2221601,20.5425999 L91.2221601,22.0479651 C91.2221601,24.3720932 93.1438256,26.2630345 95.5050103,26.2630345 L115.258047,26.2630345 C117.619232,26.2630345 119.540311,24.3720932 119.540311,22.0479651 L119.540311,20.5425999 C119.540311,18.2185891 117.619232,16.3276478 115.258047,16.3276478 L95.5050103,16.3276478 L95.5050103,16.3276478 Z" id="形状" fill="#6D798F"></path>
                <path d="M99.5108741,31.1446534 L101.239282,26.2630345 L107.625211,26.2630345 L99.5108741,31.1446534 Z M101.562941,26.7214339 L100.369039,30.0949904 L105.973613,26.7214339 L101.562941,26.7214339 L101.562941,26.7214339 Z" id="形状" fill="#6D798F"></path>
                <polygon id="路径" fill="#FFFFFF" points="101.367691 27.6418679 102.034592 25.6836149 103.876398 25.3046058 105.750218 25.7139872 106.373613 26.0267401 106.798591 26.0754062 103.554615 28.0190007"></polygon>
                <path d="M97.7535007,19.8033441 C97.0092028,19.8027582 96.3997626,20.3933182 96.3765436,21.1369125 C96.3605006,21.6389049 96.6192149,22.1097685 97.0515364,22.3654087 C97.4836541,22.6212275 98.0207881,22.6214522 98.4531197,22.3659951 C98.8856925,22.1107898 99.1448948,21.6402074 99.1294024,21.1382025 C99.1066524,20.3946081 98.4977987,19.8033441 97.7535007,19.8033441 L97.7535007,19.8033441 Z M105.753501,19.8033441 C105.009203,19.8027582 104.399763,20.3933182 104.376544,21.1369125 C104.360501,21.6389049 104.619215,22.1097685 105.051536,22.3654087 C105.483654,22.6212275 106.020788,22.6214522 106.45312,22.3659951 C106.885693,22.1107898 107.144895,21.6402074 107.129402,21.1382025 C107.106652,20.3946081 106.497799,19.8033441 105.753501,19.8033441 L105.753501,19.8033441 Z M114.357666,19.8033441 C113.613368,19.8027582 113.003224,20.3933182 112.980005,21.1369125 C112.963038,21.6397057 113.221509,22.1117631 113.654252,22.3683209 C114.086996,22.6248787 114.625183,22.6251309 115.058167,22.3689786 C115.49115,22.1128264 115.750064,21.6410113 115.733567,21.1382025 C115.710817,20.3946081 115.101143,19.8033441 114.357666,19.8033441 L114.357666,19.8033441 Z" id="形状" fill="#707C94"></path>
            </g>
        </g>
    </g>
</svg>