<?xml version="1.0" encoding="UTF-8"?>
<svg width="30px" height="30px" viewBox="0 0 30 30" version="1.1" xmlns="http://www.w3.org/2000/svg" xmlns:xlink="http://www.w3.org/1999/xlink">
    <title>Man_silhouette_SPECIAL</title>
    <g id="页面-2" stroke="none" stroke-width="1" fill="none" fill-rule="evenodd">
        <g id="01登录页" transform="translate(-979.000000, -364.000000)">
            <g id="登录" transform="translate(977.000000, 281.000000)">
                <g id="Man_silhouette_SPECIAL" transform="translate(2.000000, 83.000000)">
                    <path d="M22.80625,20.70625 C21.9585036,20.3218177 21.0429143,20.109384 20.1125,20.08125 C19.6339527,20.0631103 19.1604369,19.9768252 18.70625,19.825 C18.08125,19.5 17.55625,17.45625 17.74375,17.01875 C18.4854505,15.7785096 19.0611987,14.4463041 19.45625,13.05625 C19.8625,11.65625 20.34375,9.04375 19.01875,7.2875 C18.1875,6.175 16.8375,5.625 15,5.625 C13.1625,5.625 11.8125,6.175 10.9875,7.26875 C9.6625,9.025 10.14375,11.64375 10.55,13.0375 C10.9404376,14.4182536 11.5098536,15.7419882 12.24375,16.975 C12.4375,17.4375 11.9125,19.475 11.29375,19.80625 C10.8395631,19.9580752 10.3660473,20.0443603 9.8875,20.0625 C8.95708575,20.090634 8.04149644,20.3030677 7.19375,20.6875 C6.99837038,20.7991455 6.87739433,21.006544 6.87638609,21.2315704 C6.87539038,21.4565969 6.99451471,21.6650645 7.18889236,21.7784454 C7.38327,21.8918264 7.62337038,21.8928955 7.81875,21.78125 C8.51081051,21.4913112 9.25004513,21.3303318 10,21.30625 C10.643601,21.2888908 11.278784,21.1555024 11.875,20.9125 C12.79375,20.43125 13.21875,19.0375 13.3625,18.49375 C13.50625,17.95 13.6875,16.86875 13.29375,16.29375 C12.6319467,15.163157 12.1153709,13.9536136 11.75625,12.69375 C11.4209257,11.6107739 11.3186839,10.4690745 11.45625,9.34375 C12.1964032,9.9613934 13.136331,10.288035 14.1,10.2625 C14.6937179,10.2643663 15.2834111,10.1650273 15.84375,9.96875 C15.9282289,9.93759974 16.00498,9.88856431 16.06875,9.825 L16.25,9.63125 L16.43125,9.8125 C16.5382695,9.91931231 16.6803819,9.98370698 16.83125,9.99375 C17.4593959,10.0023721 18.0688248,9.7799528 18.54375,9.36875 C18.6802349,10.4920247 18.5780052,11.6314599 18.24375,12.7125 C17.8841905,13.9722081 17.3676377,15.1816977 16.70625,16.3125 C16.3125,16.8875 16.49375,17.9375 16.6375,18.5125 C16.78125,19.0875 17.20625,20.45 18.125,20.93125 C18.721216,21.1742524 19.356399,21.3076408 20,21.325 C20.7591945,21.3499963 21.5072071,21.5152795 22.20625,21.8125 C22.4038625,21.9196797 22.6436437,21.9132928 22.8352703,21.7957451 C23.0268969,21.6781975 23.1412562,21.4673474 23.1352703,21.2426201 C23.1292844,21.0178928 23.0038625,20.8134297 22.80625,20.70625 Z M17.1125,8.75 L16.69375,8.33125 C16.5763959,8.21292959 16.4166485,8.14637605 16.25,8.14637605 C16.0833515,8.14637605 15.9236041,8.21292959 15.80625,8.33125 L15.2875,8.85 C14.8,8.99375 12.99375,9.41875 11.95625,8.0875 L11.95625,8.04375 C12.5625,7.2625 13.575,6.875 15,6.875 C16.425,6.875 17.4375,7.2625 18.0125,8.01875 L18.0125,8.0625 C17.8010381,8.3888558 17.4829817,8.63181554 17.1125,8.75 L17.1125,8.75 Z" id="Shape" fill="#97999B" fill-rule="nonzero"></path>
                    <rect id="Rectangle-path" x="0" y="0" width="30" height="30"></rect>
                </g>
            </g>
        </g>
    </g>
</svg>