<?xml version="1.0" encoding="UTF-8"?>
<svg width="15px" height="15px" viewBox="0 0 15 15" version="1.1" xmlns="http://www.w3.org/2000/svg" xmlns:xlink="http://www.w3.org/1999/xlink">
    <title>search</title>
    <g id="页面-2" stroke="none" stroke-width="1" fill="none" fill-rule="evenodd">
        <g id="02数据字典" transform="translate(-483.000000, -25.000000)" fill="#E5E5E5" fill-rule="nonzero">
            <g id="搜索栏" transform="translate(471.000000, 16.000000)">
                <g id="search" transform="translate(12.000000, 9.000000)">
                    <path d="M14.8242187,13.9704241 L11.3805804,10.5284598 C12.3030134,9.41517857 12.8571429,7.98716518 12.8571429,6.42857143 C12.8571429,2.87779018 9.97935268,0 6.42857143,0 C2.87779018,0 0,2.87779018 0,6.42857143 C0,9.97935268 2.87779018,12.8571429 6.42857143,12.8571429 C7.98716518,12.8571429 9.41517857,12.3030134 10.5284598,11.3805804 L13.9720982,14.8242188 C14.0892857,14.9414062 14.2433036,15 14.3989955,15 C14.5546875,15 14.7070312,14.9414062 14.8258929,14.8242188 C15.0585937,14.5881696 15.0585937,14.2064732 14.8242187,13.9704241 Z M8.4609375,11.2416295 C7.81808036,11.5145089 7.13504464,11.6517857 6.42857143,11.6517857 C5.72209821,11.6517857 5.0390625,11.5145089 4.39620536,11.2416295 C3.77511161,10.9787946 3.21595982,10.6021205 2.73549107,10.1216518 C2.25502232,9.64118304 1.87834821,9.08203125 1.61551339,8.4609375 C1.34263393,7.81808036 1.20535714,7.13504464 1.20535714,6.42857143 C1.20535714,5.72209821 1.34263393,5.0390625 1.61551339,4.39620536 C1.87834821,3.77511161 2.25502232,3.21595982 2.73549107,2.73549107 C3.21595982,2.25502232 3.77511161,1.87834821 4.39620536,1.61551339 C5.0390625,1.34263393 5.72209821,1.20535714 6.42857143,1.20535714 C7.13504464,1.20535714 7.81808036,1.34263393 8.4609375,1.61551339 C9.08203125,1.87834821 9.64118304,2.25502232 10.1216518,2.73549107 C10.6021205,3.21595982 10.9787946,3.77511161 11.2416295,4.39620536 C11.5145089,5.0390625 11.6517857,5.72209821 11.6517857,6.42857143 C11.6517857,7.13504464 11.5145089,7.81808036 11.2416295,8.4609375 C10.9787946,9.08203125 10.6021205,9.64118304 10.1216518,10.1216518 C9.64118304,10.6021205 9.08370536,10.9787946 8.4609375,11.2416295 Z" id="Shape"></path>
                </g>
            </g>
        </g>
    </g>
</svg>