<?xml version="1.0" encoding="UTF-8"?>
<svg width="30px" height="30px" viewBox="0 0 30 30" version="1.1" xmlns="http://www.w3.org/2000/svg" xmlns:xlink="http://www.w3.org/1999/xlink">
    <title>Unlock_SPECIAL</title>
    <g id="页面-2" stroke="none" stroke-width="1" fill="none" fill-rule="evenodd">
        <g id="01登录页" transform="translate(-979.000000, -422.000000)">
            <g id="登录" transform="translate(977.000000, 281.000000)">
                <g id="Unlock_SPECIAL" transform="translate(2.000000, 141.000000)">
                    <path d="M20.5600649,14.4732143 L11.1079545,14.4732143 L11.1079545,11.8392857 C11.1079546,9.80273573 12.8504827,8.15178579 15,8.15178579 C17.1495173,8.15178579 18.8920454,9.80273573 18.8920455,11.8392857 L18.8920455,12.3660714 C18.8920455,12.6570071 19.140978,12.8928571 19.4480519,12.8928571 C19.7551259,12.8928571 20.0040584,12.6570071 20.0040584,12.3660714 L20.0040584,11.8392857 C20.0040584,9.22086427 17.7636652,7.09821429 15,7.09821429 C12.2363348,7.09821429 9.99594156,9.22086427 9.99594156,11.8392857 L9.99594156,14.4732143 L9.43993506,14.4732143 C9.13286116,14.4732143 8.88392857,14.7090643 8.88392857,15 L8.88392857,22.375 C8.88392857,22.6659357 9.13286116,22.9017857 9.43993506,22.9017857 L20.5600649,22.9017857 C20.8671388,22.9017857 21.1160714,22.6659357 21.1160714,22.375 L21.1160714,15 C21.1160714,14.7090643 20.8671388,14.4732143 20.5600649,14.4732143 Z M20.0040584,21.8482143 L9.99594156,21.8482143 L9.99594156,15.5267857 L20.0040584,15.5267857 L20.0040584,21.8482143 Z" id="Shape" fill="#97999B" fill-rule="nonzero"></path>
                    <rect id="Rectangle-path" x="0" y="0" width="30" height="30"></rect>
                </g>
            </g>
        </g>
    </g>
</svg>