<?xml version="1.0" encoding="UTF-8"?>
<svg width="13px" height="13px" viewBox="0 0 13 13" version="1.1" xmlns="http://www.w3.org/2000/svg" xmlns:xlink="http://www.w3.org/1999/xlink">
    <title>保存表单@2x</title>
    <defs>
        <linearGradient x1="50%" y1="0%" x2="50%" y2="100%" id="linearGradient-1">
            <stop stop-color="#FED87E" offset="0%"></stop>
            <stop stop-color="#FFB400" offset="100%"></stop>
        </linearGradient>
    </defs>
    <g id="页面-1" stroke="none" stroke-width="1" fill="none" fill-rule="evenodd">
        <g id="数据配置-详情" transform="translate(-1307.000000, -617.000000)">
            <g id="编组-7" transform="translate(249.000000, 549.000000)">
                <g id="保存表单@2x" transform="translate(1058.000000, 68.000000)">
                    <rect id="矩形" fill="#000000" fill-rule="nonzero" opacity="0" x="0" y="0" width="13" height="13"></rect>
                    <path d="M9.16768254,0.619047622 L7.93763492,2.19142857 L2.59731746,2.19142857 C2.36939042,2.19142858 2.18461906,2.37619995 2.18461905,2.60412698 L2.18461905,10.395873 C2.18461906,10.6238001 2.36939042,10.8085714 2.59731746,10.8085714 L10.1713651,10.8085714 C10.3992921,10.8085714 10.5840635,10.6238001 10.5840635,10.395873 L10.5840635,5.90571428 L12.1622222,3.88761905 L12.1622222,11.7619048 C12.1622222,12.1037953 11.8850652,12.3809524 11.5431746,12.3809524 L1.23809524,12.3809524 C0.896204683,12.3809524 0.619047622,12.1037953 0.619047622,11.7619048 L0.619047622,1.23809524 C0.619047622,0.896204683 0.896204683,0.619047622 1.23809524,0.619047622 L9.16768254,0.619047622 Z M10.6802222,0.954158728 C10.8196515,0.775556355 11.077001,0.742765942 11.2567619,0.880698419 L11.8448571,1.33177778 C11.932005,1.39876543 11.9888463,1.49773632 12.0027898,1.60676692 C12.0167333,1.71579753 11.9866281,1.82588769 11.9191429,1.9126508 L6.60977778,8.73228572 C6.53166463,8.83254275 6.41171422,8.89121675 6.28461929,8.89133787 C6.15752436,8.8914586 6.03746251,8.83301297 5.95915873,8.73290476 L3.60430158,5.72226985 L3.60409524,5.7216508 C3.57044074,5.67845305 3.55533684,5.62364957 3.56210994,5.56930993 C3.56888304,5.51497029 3.59697764,5.46555123 3.64020635,5.4319365 L4.55722222,4.7194127 C4.64682891,4.64970072 4.7759181,4.66546805 4.84611111,4.75469842 L6.28498413,6.58666667 L10.6802222,0.954158728 Z" id="形状" fill="url(#linearGradient-1)"></path>
                </g>
            </g>
        </g>
    </g>
</svg>