<?xml version="1.0" encoding="UTF-8"?>
<svg width="13px" height="13px" viewBox="0 0 13 13" version="1.1" xmlns="http://www.w3.org/2000/svg" xmlns:xlink="http://www.w3.org/1999/xlink">
    <title>删除_填充</title>
    <defs>
        <linearGradient x1="50%" y1="0%" x2="50%" y2="100%" id="linearGradient-1">
            <stop stop-color="#FED87E" offset="0%"></stop>
            <stop stop-color="#FFB400" offset="100%"></stop>
        </linearGradient>
    </defs>
    <g id="页面-1" stroke="none" stroke-width="1" fill="none" fill-rule="evenodd">
        <g id="数据配置-详情备份" transform="translate(-416.000000, -203.000000)">
            <g id="编组-15" transform="translate(249.000000, 176.000000)">
                <g id="编组-13" transform="translate(20.000000, 20.000000)">
                    <g id="删除_填充" transform="translate(147.000000, 7.000000)">
                        <rect id="矩形" fill="#000000" fill-rule="nonzero" opacity="0" x="0" y="0" width="13" height="13"></rect>
                        <path d="M11.368201,1.510821 L8.607014,1.510821 C8.607014,1.510821 8.190039,1.523782 7.862452,1.168765 C7.730476,1.015781 7.509463,0.866671 7.146152,0.853931 L6.623318,0.853931 L6.543589,0.853931 L6.020768,0.853931 C5.657444,0.866684 5.436379,1.015794 5.304468,1.168765 C4.976829,1.523782 4.559893,1.510821 4.559893,1.510821 L1.798706,1.510821 C1.621061,1.510821 1.47701997,1.654861 1.47701997,1.832506 L1.47701997,3.014323 C1.476345,3.356171 1.808157,3.349437 1.808157,3.349437 L2.440867,3.349437 L2.440867,11.59912 C2.440867,11.59912 2.390505,12.158783 2.95022,12.18893 L6.369285,12.18893 L6.797609,12.18893 L7.188727,12.191959 L7.677501,12.191959 L9.898343,12.191959 L10.206807,12.191959 L10.216739,12.18893 C10.77635,12.158783 10.72604,11.59912 10.72604,11.59912 L10.72604,3.349437 L11.358802,3.349437 C11.358802,3.349437 11.690575,3.356171 11.6899389,3.014323 L11.6899389,1.832506 C11.6899389,1.654874 11.545885,1.510821 11.368201,1.510821 Z M5.465837,10.196511 C5.465837,10.41287 5.290285,10.588357 5.073991,10.588357 C4.857632,10.588357 4.682145,10.412857 4.682145,10.196511 L4.682145,4.071847 C4.682145,3.855488 4.857645,3.680001 5.073991,3.680001 C5.290298,3.680001 5.465837,3.855501 5.465837,4.071847 L5.465837,10.196511 Z M8.422531,10.196511 C8.422531,10.41287 8.247031,10.588357 8.030685,10.588357 C7.814378,10.588357 7.638839,10.412857 7.638839,10.196511 L7.638839,4.071847 C7.638839,3.855488 7.814391,3.680001 8.030685,3.680001 C8.247031,3.680001 8.422531,3.855501 8.422531,4.071847 L8.422531,10.196511 Z" id="形状" fill="url(#linearGradient-1)"></path>
                    </g>
                </g>
            </g>
        </g>
    </g>
</svg>