<?xml version="1.0" encoding="UTF-8"?>
<svg width="12px" height="12px" viewBox="0 0 12 12" version="1.1" xmlns="http://www.w3.org/2000/svg" xmlns:xlink="http://www.w3.org/1999/xlink">
    <title>单选_选中</title>
    <g id="页面-2" stroke="none" stroke-width="1" fill="none" fill-rule="evenodd">
        <g id="09单个字段" transform="translate(-251.000000, -310.000000)" fill="#D5D5D5" fill-rule="nonzero">
            <g id="编组-4" transform="translate(57.000000, 307.000000)">
                <g id="单选_选中" transform="translate(194.000000, 3.000000)">
                    <path d="M6,0 C2.68666667,0 0,2.68666667 0,6 C0,9.31333333 2.68666667,12 6,12 C9.31333333,12 12,9.31333333 12,6 C12,2.68666667 9.31333333,0 6,0 Z M6,10.8 C3.34933333,10.8 1.2,8.65066667 1.2,6 C1.2,3.34933333 3.34933333,1.2 6,1.2 C8.65066667,1.2 10.8,3.34933333 10.8,6 C10.8,8.65066667 8.65066667,10.8 6,10.8 Z" id="形状"></path>
                    <path d="M3.2,6 L3.2,6.00000042 C3.2,7.54640042 4.45360267,8.80000042 6,8.80000042 C7.5464,8.80000042 8.8,7.54639776 8.8,6.00000042 L8.8,6.00000042 C8.8,4.45360042 7.54639733,3.20000042 6,3.20000042 C4.4536,3.20000042 3.2,4.45360309 3.2,6.00000042 L3.2,6 Z" id="路径"></path>
                </g>
            </g>
        </g>
    </g>
</svg>