<?xml version="1.0" encoding="UTF-8"?>
<svg width="16px" height="17px" viewBox="0 0 16 17" version="1.1" xmlns="http://www.w3.org/2000/svg" xmlns:xlink="http://www.w3.org/1999/xlink">
    <title>总览</title>
    <g id="页面-2" stroke="none" stroke-width="1" fill="none" fill-rule="evenodd">
        <g id="05数据总览" transform="translate(-50.000000, -221.000000)" fill-rule="nonzero">
            <g id="编组-2" transform="translate(50.000017, 220.000000)">
                <g id="总览" transform="translate(0.000000, 1.000000)">
                    <path d="M7.04090651,6.87247755 L0.402248336,10.7817645 L0.40224831,10.7817645 C0.134687829,9.963719 -0.00108839944,9.1083268 0,8.24763815 C0,4.1095697 3.0872152,0.707274983 7.04090651,0.306719071 L7.04090651,6.87247748 L7.04090651,6.87247755 Z" id="路径" fill="#6D7990"></path>
                    <path d="M7.48504843,8.4537904 L14.2460682,12.8055498 C12.8323561,14.874584 10.483432,16.2287946 7.82277044,16.2287946 C4.92998847,16.2287946 2.40340754,14.6265316 1.05003169,12.2440873 L7.4850648,8.4537904 L7.48504843,8.4537904 Z" id="路径" fill="#444E5A"></path>
                    <polygon id="路径" fill="#FFB541" points="8.30210197 3.35537306 12.6521755 0.838006899 13.4859891 2.28607716 9.13591558 4.80344333"></polygon>
                    <polygon id="路径" fill="#FFB541" points="8.07584099 0.838841629 9.52474926 0 10.3602389 1.45058428 8.9113306 2.28942591"></polygon>
                    <polygon id="路径" fill="#FFB541" points="13.1038627 10.0568815 14.552771 9.21803988 15.3882606 10.6686242 13.9393524 11.5074658"></polygon>
                    <polygon id="路径" fill="#FFB541" points="8.41523246 6.29005521 14.215887 2.93301596 15.0488626 4.37941022 9.24820806 7.73644947"></polygon>
                    <polygon id="路径" fill="#FFB541" points="10.8161128 8.38339482 15.1661864 5.86602865 16 7.31409892 11.6499265 9.83146508"></polygon>
                </g>
            </g>
        </g>
    </g>
</svg>