<?xml version="1.0" encoding="UTF-8"?>
<svg width="16px" height="20px" viewBox="0 0 16 20" version="1.1" xmlns="http://www.w3.org/2000/svg" xmlns:xlink="http://www.w3.org/1999/xlink">
    <title>检验 审核 盾</title>
    <g id="页面-2" stroke="none" stroke-width="1" fill="none" fill-rule="evenodd">
        <g id="11勾稽关系" transform="translate(-270.000000, -220.000000)" fill-rule="nonzero">
            <g id="检验-审核-盾" transform="translate(270.000000, 220.000000)">
                <path d="M5.33333625,7.56363398 L5.33333625,7.56363382 C5.33333625,8.23306856 5.87602112,8.77575343 6.54545585,8.77575343 C7.21489059,8.77575343 7.75757545,8.23306856 7.75757545,7.56363382 C7.75757545,7.56363381 7.75757545,7.56363379 7.75757545,7.56363378 L7.75757545,7.56363376 C7.75757545,6.89419902 7.21489059,6.35151416 6.54545585,6.35151416 C5.87602112,6.35151416 5.33333625,6.89419902 5.33333625,7.56363376 C5.33333625,7.56363377 5.33333625,7.56363379 5.33333625,7.5636338 L5.33333625,7.56363398 Z" id="路径" fill="#A8ABB0"></path>
                <path d="M14.4484728,3.53938807 C12.4605957,3.34544889 10.5696851,2.2787831 9.30908221,0.678786811 C8.96968881,0.24242267 8.48484138,0 7.95150859,0 C7.4181758,0 6.93332838,0.242424754 6.59393497,0.678786811 C5.33333,2.27878519 3.49091729,3.29697165 1.45454436,3.53938807 C0.678786811,3.63635777 0,4.3636289 0,5.2363551 L0,12.6545351 C0,12.8969598 0.0484847424,13.1878679 0.193939178,13.4302926 C1.64848353,16.339373 4.21818509,18.5696832 7.41818184,19.781807 C7.61212102,19.8302917 7.80606061,19.8787765 8,19.8787765 C8.19393918,19.8787765 8.38787877,19.8302917 8.58181816,19.781807 C11.830294,18.6181728 14.3999998,16.3393938 15.8060608,13.4302926 C15.9030303,13.1878679 16,12.9454452 16,12.6545351 L16,5.2363551 C16,4.3636289 15.3212132,3.63635672 14.448487,3.53938807 L14.4484728,3.53938807 Z" id="路径" fill="#495461"></path>
                <path d="M3.87879606,12.8969619 C3.87879606,13.2848407 3.53940266,13.6242341 3.15152388,13.6242341 C2.76364511,13.6242341 2.4242517,13.2848407 2.4242517,12.8969619 C2.4242517,11.3454489 3.2969779,10.0363606 4.50910375,9.30909055 C4.12122498,8.82424312 3.87880231,8.24242496 3.87880231,7.56363815 C3.87880231,6.1090938 5.09092191,4.89697419 6.54546627,4.89697419 C8.00001062,4.89697419 9.21213023,6.1090938 9.21213023,7.56363815 C9.21213023,8.24242496 8.96970547,8.82424312 8.58182878,9.30909055 C9.01819292,9.5515153 9.40606961,9.84242334 9.74546302,10.2303021 C9.98788777,10.5212101 9.98788777,11.0060597 9.64849353,11.2484823 C9.3575855,11.4909071 8.87273599,11.4909071 8.63031332,11.1515126 C8.14546589,10.5696945 7.36970835,10.1818157 6.5939508,10.1818157 C5.09092108,10.2303004 3.87880773,11.3939353 3.87880773,12.8969588 L3.87879606,12.8969619 Z" id="路径" fill="#6D7990"></path>
                <path d="M13.6727236,12.2181751 L10.2303104,15.6605883 C10.084856,15.8060427 9.89091704,15.8545274 9.69697765,15.8545274 C9.50303847,15.8545274 9.30909888,15.8060427 9.16364486,15.6605883 L7.12728234,13.6242257 C6.83637431,13.3333177 6.83637431,12.8969536 7.12728234,12.6060455 C7.41819038,12.3151375 7.85455452,12.3151375 8.14546256,12.6060455 L9.69697557,14.1575585 L12.6060559,11.2484782 C12.896964,10.9575701 13.3333281,10.9575701 13.6242362,11.2484782 C13.9151442,11.5393862 13.9636296,11.927265 13.6727209,12.2181751 L13.6727236,12.2181751 Z" id="路径" fill="#FFB541"></path>
            </g>
        </g>
    </g>
</svg>