<?xml version="1.0" encoding="UTF-8"?>
<svg width="13px" height="13px" viewBox="0 0 13 13" version="1.1" xmlns="http://www.w3.org/2000/svg" xmlns:xlink="http://www.w3.org/1999/xlink">
    <title>编组 2</title>
    <defs>
        <radialGradient cx="61.1725527%" cy="34.333113%" fx="61.1725527%" fy="34.333113%" r="86.3977981%" gradientTransform="translate(0.611726,0.343331),rotate(104.697375),scale(1.000000,1.298746),translate(-0.611726,-0.343331)" id="radialGradient-1">
            <stop stop-color="#D6DCE5" offset="0%"></stop>
            <stop stop-color="#9AA4B0" offset="100%"></stop>
        </radialGradient>
    </defs>
    <g id="页面-1" stroke="none" stroke-width="1" fill="none" fill-rule="evenodd">
        <g id="数据配置-详情备份" transform="translate(-285.000000, -203.000000)" fill="url(#radialGradient-1)">
            <g id="编组-15" transform="translate(249.000000, 176.000000)">
                <g id="编组-13" transform="translate(20.000000, 20.000000)">
                    <g id="编组-2" transform="translate(16.000000, 7.000000)">
                        <path d="M6.5,0 C10.0898509,0 13,2.91014913 13,6.5 C13,10.0898509 10.0898509,13 6.5,13 C2.91014913,13 0,10.0898509 0,6.5 C0,2.91014913 2.91014913,0 6.5,0 Z M8.62132034,3.67157288 L6.5,5.79289322 L4.37867966,3.67157288 L3.67157288,4.37867966 L5.79289322,6.5 L3.67157288,8.62132034 L4.37867966,9.32842712 L6.5,7.20710678 L8.62132034,9.32842712 L9.32842712,8.62132034 L7.20710678,6.5 L9.32842712,4.37867966 L8.62132034,3.67157288 Z" id="形状结合"></path>
                    </g>
                </g>
            </g>
        </g>
    </g>
</svg>