<?xml version="1.0" encoding="UTF-8"?>
<svg width="16px" height="16px" viewBox="0 0 16 16" version="1.1" xmlns="http://www.w3.org/2000/svg" xmlns:xlink="http://www.w3.org/1999/xlink">
    <title>置灰</title>
    <g id="页面-1" stroke="none" stroke-width="1" fill="none" fill-rule="evenodd">
        <g id="参数配置-新增校验规则" transform="translate(-1107.000000, -749.000000)" fill-rule="nonzero">
            <g id="编组-9" transform="translate(271.000000, 727.000000)">
                <g id="编组-8" transform="translate(729.000000, 20.000000)">
                    <g id="置灰" transform="translate(115.000000, 10.000000) scale(-1, 1) rotate(90.000000) translate(-115.000000, -10.000000) translate(107.000000, 2.000000)">
                        <rect id="矩形" fill="#000000" opacity="0" x="0" y="0" width="16" height="16"></rect>
                        <path d="M3.80296392,8.91856145 L4.23287608,9.34810522 C4.38922658,9.50407932 4.64239908,9.50402507 4.79868271,9.34798395 L7.50382395,6.64284271 C7.66003367,6.486633 7.91329966,6.486633 8.06950938,6.64284271 L10.7746506,9.34798395 C10.9309343,9.50402507 11.1841068,9.50407933 11.3404573,9.34810522 L11.7703694,8.91856145 C11.9267672,8.76253997 11.9268758,8.509274 11.770733,8.35299734 C11.7706926,8.35295691 11.7706522,8.35291649 11.7704906,8.35299729 L8.06950938,4.65201605 C7.91329966,4.49580633 7.66003367,4.49580633 7.50382395,4.65201605 L3.80284271,8.35299729 C3.64651179,8.50908579 3.64651179,8.76235179 3.8027215,8.9185615 C3.80276191,8.91860191 3.80280234,8.91864232 3.80296392,8.91856145 Z" id="路径" fill="#E5E5E5"></path>
                    </g>
                </g>
            </g>
        </g>
    </g>
</svg>