<?xml version="1.0" encoding="UTF-8"?>
<svg width="13px" height="13px" viewBox="0 0 13 13" version="1.1" xmlns="http://www.w3.org/2000/svg" xmlns:xlink="http://www.w3.org/1999/xlink">
    <title>计算器</title>
    <defs>
        <radialGradient cx="61.1725527%" cy="34.333113%" fx="61.1725527%" fy="34.333113%" r="102.65269%" gradientTransform="translate(0.611726,0.343331),scale(1.000000,0.833333),rotate(102.329797),scale(1.000000,1.298746),translate(-0.611726,-0.343331)" id="radialGradient-1">
            <stop stop-color="#D6DCE5" offset="0%"></stop>
            <stop stop-color="#9AA4B0" offset="100%"></stop>
        </radialGradient>
    </defs>
    <g id="页面-1" stroke="none" stroke-width="1" fill="none" fill-rule="evenodd">
        <g id="数据配置-详情备份" transform="translate(-523.000000, -203.000000)">
            <g id="编组-15" transform="translate(249.000000, 176.000000)">
                <g id="编组-13" transform="translate(20.000000, 20.000000)">
                    <g id="计算器" transform="translate(254.000000, 7.000000)">
                        <rect id="矩形" fill="#000000" fill-rule="nonzero" opacity="0" x="0" y="0" width="13" height="13"></rect>
                        <path d="M10.4722222,0 L2.52777778,0 C1.73003314,0 1.08333333,0.646699807 1.08333333,1.44444445 L1.08333333,11.5555556 C1.08333333,12.3533002 1.73003314,13 2.52777778,13 L10.4722222,13 C11.2699669,13 11.9166667,12.3533002 11.9166667,11.5555556 L11.9166667,1.44444445 C11.9166667,0.646699807 11.2699669,0 10.4722222,0 L10.4722222,0 Z M4.98333333,10.9633333 C4.98333333,11.0431078 4.91866335,11.1077778 4.83888889,11.1077778 L3.07666667,11.1077778 C3.03835762,11.1077778 3.00161761,11.0925596 2.97452902,11.065471 C2.94744043,11.0383824 2.93222222,11.0016424 2.93222222,10.9633333 L2.93222222,9.93777778 C2.93222222,9.85800331 2.99689221,9.79333333 3.07666667,9.79333333 L4.83888889,9.79333333 C4.91866335,9.79333333 4.98333333,9.85800332 4.98333333,9.93777778 L4.98333333,10.9633333 Z M4.98333333,9.10722222 C4.98333333,9.18699668 4.91866335,9.25166667 4.83888889,9.25166667 L3.07666667,9.25166667 C2.99689221,9.25166667 2.93222222,9.18699669 2.93222222,9.10722222 L2.93222222,8.08166667 C2.93222222,8.04335762 2.94744043,8.00661761 2.97452902,7.97952902 C3.00161761,7.95244043 3.03835762,7.93722222 3.07666667,7.93722222 L4.83888889,7.93722222 C4.91866335,7.93722222 4.98333333,8.00189221 4.98333333,8.08166667 L4.98333333,9.10722222 Z M4.98333333,7.25833333 C4.98333333,7.33810779 4.91866335,7.40277778 4.83888889,7.40277778 L3.07666667,7.40277778 C2.99689221,7.40277778 2.93222222,7.33810779 2.93222222,7.25833333 L2.93222222,6.23277778 C2.93222222,6.15300331 2.99689221,6.08833333 3.07666667,6.08833333 L4.83888889,6.08833333 C4.91866335,6.08833333 4.98333333,6.15300332 4.98333333,6.23277778 L4.98333333,7.25833333 Z M7.58333333,10.9633333 C7.58333333,11.0431078 7.51866335,11.1077778 7.43888889,11.1077778 L5.67666667,11.1077778 C5.6377495,11.1098861 5.5997717,11.0953462 5.57221275,11.0677872 C5.5446538,11.0402283 5.53011388,11.0022505 5.53222222,10.9633333 L5.53222222,9.93777778 C5.53011388,9.8988606 5.5446538,9.86088281 5.57221275,9.83332386 C5.5997717,9.80576491 5.6377495,9.79122498 5.67666667,9.79333333 L7.43888889,9.79333333 C7.51866335,9.79333334 7.58333333,9.85800332 7.58333333,9.93777778 L7.58333333,10.9633333 Z M7.58333333,9.10722222 C7.58333333,9.18699668 7.51866335,9.25166666 7.43888889,9.25166667 L5.67666667,9.25166667 C5.6377495,9.25377502 5.5997717,9.23923509 5.57221275,9.21167614 C5.5446538,9.18411719 5.53011388,9.1461394 5.53222222,9.10722222 L5.53222222,8.08166667 C5.53011388,8.0427495 5.5446538,8.0047717 5.57221275,7.97721275 C5.5997717,7.9496538 5.6377495,7.93511388 5.67666667,7.93722222 L7.43888889,7.93722222 C7.51866335,7.93722223 7.58333333,8.00189221 7.58333333,8.08166667 L7.58333333,9.10722222 Z M7.58333333,7.25833333 C7.58333333,7.33810779 7.51866335,7.40277777 7.43888889,7.40277778 L5.67666667,7.40277778 C5.6377495,7.40488612 5.5997717,7.3903462 5.57221275,7.36278725 C5.5446538,7.3352283 5.53011388,7.2972505 5.53222222,7.25833333 L5.53222222,6.23277778 C5.53011388,6.1938606 5.5446538,6.15588281 5.57221275,6.12832386 C5.5997717,6.10076491 5.6377495,6.08622498 5.67666667,6.08833333 L7.43888889,6.08833333 C7.51866335,6.08833334 7.58333333,6.15300332 7.58333333,6.23277778 L7.58333333,7.25833333 Z M10.1833333,10.9633333 C10.1833333,11.0431078 10.1186634,11.1077778 10.0388889,11.1077778 L8.26944445,11.1077778 C8.2311354,11.1077778 8.19439539,11.0925596 8.1673068,11.065471 C8.14021821,11.0383824 8.125,11.0016424 8.125,10.9633333 L8.125,9.93777778 C8.125,9.85800331 8.18966998,9.79333333 8.26944445,9.79333333 L10.0388889,9.79333333 C10.1186634,9.79333333 10.1833333,9.85800332 10.1833333,9.93777778 L10.1833333,10.9633333 Z M10.1833333,9.10722222 C10.1833333,9.18699668 10.1186634,9.25166667 10.0388889,9.25166667 L8.26944445,9.25166667 C8.18966998,9.25166667 8.125,9.18699669 8.125,9.10722222 L8.125,8.08166667 C8.125,8.04335762 8.14021821,8.00661761 8.1673068,7.97952902 C8.19439539,7.95244043 8.2311354,7.93722222 8.26944445,7.93722222 L10.0388889,7.93722222 C10.1186634,7.93722222 10.1833333,8.00189221 10.1833333,8.08166667 L10.1833333,9.10722222 Z M10.1833333,7.25833333 C10.1833333,7.33810779 10.1186634,7.40277778 10.0388889,7.40277778 L8.26944445,7.40277778 C8.18966998,7.40277778 8.125,7.33810779 8.125,7.25833333 L8.125,6.23277778 C8.125,6.15300331 8.18966998,6.08833333 8.26944445,6.08833333 L10.0388889,6.08833333 C10.1186634,6.08833333 10.1833333,6.15300332 10.1833333,6.23277778 L10.1833333,7.25833333 Z M10.1833333,4.16 C10.1833333,4.55887232 9.85998343,4.88222222 9.46111111,4.88222222 L3.53888889,4.88222222 C3.14001657,4.88222222 2.81666667,4.55887232 2.81666667,4.16 L2.81666667,2.71555555 C2.81666667,2.31668323 3.14001657,1.99333333 3.53888889,1.99333333 L9.46111111,1.99333333 C9.85998343,1.99333333 10.1833333,2.31668323 10.1833333,2.71555555 L10.1833333,4.16 Z" id="形状" fill="url(#radialGradient-1)"></path>
                    </g>
                </g>
            </g>
        </g>
    </g>
</svg>