<?xml version="1.0" encoding="UTF-8"?>
<svg width="16px" height="18px" viewBox="0 0 16 18" version="1.1" xmlns="http://www.w3.org/2000/svg" xmlns:xlink="http://www.w3.org/1999/xlink">
    <title>详情</title>
    <g id="页面-2" stroke="none" stroke-width="1" fill="none" fill-rule="evenodd">
        <g id="13详情" transform="translate(-270.000000, -221.000000)" fill-rule="nonzero">
            <g id="编组-2" transform="translate(270.000000, 220.000000)">
                <g id="详情" transform="translate(0.000000, 1.000000)">
                    <path d="M10.8003199,6.40042655 C10.3204479,6.40042655 10.0005332,6.08051186 10.0005332,5.60063983 L10.0005332,0 L2.00053319,0 C0.880831778,0 0,0.880831778 0,2.00053319 L0,15.5990403 C0,16.7187417 0.880831778,17.5995734 2.00053319,17.5995734 L13.9994668,17.5995734 C15.1191682,17.5995734 16,16.7187417 16,15.5990403 L16,6.40042655 L10.8003199,6.40042655 Z" id="路径" fill="#495461"></path>
                    <path d="M3.20127966,4.638763 C3.20127966,4.15889096 3.52119435,3.83897627 4.00106638,3.83897627 L7.60117302,3.83897627 C8.08104505,3.83897627 8.40095974,4.15889096 8.40095974,4.638763 L8.40095974,7.83790989 C8.40095974,8.31778192 8.08104505,8.63769661 7.60117302,8.63769661 L4.00106638,8.63769661 C3.52119435,8.63769661 3.20127966,8.31778192 3.20127966,7.83790989 L3.20127966,4.638763 Z" id="路径" fill="#6D7990"></path>
                    <path d="M8,14.2383364 L4.00106638,14.2383364 C3.52119435,14.2383364 3.20127966,13.9184218 3.20127966,13.4385497 C3.20127966,12.9586777 3.52119435,12.638763 4.00106638,12.638763 L8,12.638763 C8.47987203,12.638763 8.79978672,12.9586777 8.79978672,13.4385497 C8.79978672,13.9184218 8.47987203,14.2383364 8,14.2383364 Z" id="路径" fill="#FFFFFF"></path>
                    <path d="M12.0010664,11.4380165 L4.00106638,11.4380165 C3.52119435,11.4380165 3.20127966,11.1181018 3.20127966,10.6382298 C3.20127966,10.1583578 3.52119435,9.83844308 4.00106638,9.83844308 L12.0010664,9.83844308 C12.4809384,9.83844308 12.8008531,10.2394028 12.8008531,10.6382298 C12.8008531,11.1181018 12.4809384,11.4380165 12.0010664,11.4380165 Z" id="路径" fill="#FFFFFF"></path>
                    <polygon id="路径" fill="#FFB541" points="11.6001066 0.479872034 11.6001066 4.79872034 15.520128 4.79872034"></polygon>
                </g>
            </g>
        </g>
    </g>
</svg>