<?xml version="1.0" encoding="UTF-8"?>
<svg width="13px" height="11px" viewBox="0 0 13 11" version="1.1" xmlns="http://www.w3.org/2000/svg" xmlns:xlink="http://www.w3.org/1999/xlink">
    <title>资产统计</title>
    <g id="页面-2" stroke="none" stroke-width="1" fill="none" fill-rule="evenodd">
        <g id="03数据质检" transform="translate(-674.000000, -286.000000)" fill="#FCFCFE" fill-rule="nonzero">
            <g id="时间选择-copy备份-5" transform="translate(664.000000, 279.000000)">
                <g id="资产统计" transform="translate(10.000000, 7.000000)">
                    <path d="M12.3905843,10.9681773 L0.609392468,10.9681773 C0.272477529,10.9681773 -4.50162652e-16,10.6953673 -4.50162652e-16,10.3587921 L-4.50162652e-16,0.609203723 C-4.50162652e-16,0.272643043 0.272477529,0 0.609392468,0 C0.945625023,0 1.21878494,0.272644495 1.21878494,0.609203723 L1.21878494,8.32766779 L1.21878494,9.74942723 L12.390593,9.74942723 C12.7268256,9.74942723 13,10.0222343 13,10.358795 C13,10.6953557 12.7268096,10.9681773 12.390593,10.9681773 M10.9684343,9.14005509 L9.74964937,9.14005509 C9.41341682,9.14005509 9.1402569,8.8674106 9.1402569,8.53085137 L9.1402569,4.26542641 C9.1402569,3.9286886 9.41341827,3.65605862 9.74964937,3.65605862 L10.9684343,3.65605862 C11.3053652,3.65605862 11.5778413,3.92870312 11.5778413,4.26542641 L11.5778413,8.53085137 C11.5778413,8.86741205 11.3053638,9.14005509 10.9684343,9.14005509 M7.51542423,9.14005509 L6.2966393,9.14005509 C5.96006555,9.14005509 5.68723231,8.8674106 5.68723231,8.53085137 L5.68723231,1.82794946 C5.68723231,1.49138878 5.96006555,1.21858167 6.2966393,1.21858167 L7.51542423,1.21858167 C7.85198346,1.21858167 8.1248167,1.49138878 8.1248167,1.82794946 L8.1248167,8.53085137 C8.1248167,8.86741205 7.85199798,9.14005509 7.51542423,9.14005509 M4.06241416,9.14005509 L2.84362922,9.14005509 C2.50671428,9.14005509 2.23423675,8.8674106 2.23423675,8.53085137 L2.23423675,7.3121158 C2.23423675,6.97557109 2.50671428,6.70274801 2.84362922,6.70274801 L4.06241416,6.70274801 C4.3989879,6.70274801 4.67182114,6.97555512 4.67182114,7.3121158 L4.67182114,8.53085137 C4.67182114,8.86741205 4.3989879,9.14005509 4.06241416,9.14005509" id="形状"></path>
                </g>
            </g>
        </g>
    </g>
</svg>